<?xml version="1.0" ?><svg enable-background="new 0 0 500 500" id="Layer_1" version="1.1" viewBox="0 0 500 500" xml:space="preserve" xmlns="http://www.w3.org/2000/svg" xmlns:xlink="http://www.w3.org/1999/xlink"><g><g id="XMLID_124_"><path d="M326.477,488.624H165.218c-23.909,0-38.343-20.844-25.403-36.684l63.442-70.333    c9.705-10.759,15.076-24.733,15.076-39.222v-59.642h55.029v59.642c0,14.489,5.371,28.463,15.076,39.222l63.442,70.333    C364.82,467.78,350.385,488.624,326.477,488.624z" fill="#E1E1E1" id="XMLID_73_"/><rect fill="#C5C6C8" height="21.273" id="XMLID_65_" width="55.029" x="218.333" y="270.361"/><path d="M285.007,275.629h-78.32c-5.358,0-9.742-4.384-9.742-9.742v-1.79    c0-5.358,4.384-9.742,9.742-9.742h78.32c5.358,0,9.742,4.384,9.742,9.742v1.79C294.749,271.246,290.365,275.629,285.007,275.629z" fill="#E1E1E1" id="XMLID_58_"/><g id="XMLID_48_"><path d="M340.826,453.261l-55.297-59.437c0,0-9.218-2.091-13.698-6.272     c-4.48-4.182-6.571-24.193-14.015-20.908c-7.444,3.285-0.62,12.544-0.023,21.505c0.597,8.96-10.454,17.025-25.55,7.766     s-32.693,4.48-32.693,5.376l-49.581,53.762c0,0-5.675,5.077-3.218,14.337c2.457,9.259,18.451,10.155,18.451,10.155     s156.209,0,160.391,0c4.181,0,9.259-2.091,16.726-7.766C349.786,466.104,340.826,453.261,340.826,453.261z" fill="#F34E2D" id="XMLID_51_"/><circle cx="249.754" cy="350.773" fill="#F34E2D" id="XMLID_49_" r="6.548"/></g><circle cx="301.297" cy="433.789" fill="#FFFFFF" id="XMLID_47_" r="6.548"/><circle cx="203.494" cy="439.687" fill="#FFFFFF" id="XMLID_126_" r="6.548"/><circle cx="285.652" cy="459.672" fill="#FFFFFF" id="XMLID_125_" r="6.548"/></g><path d="M361.669,142.338c7.6-5.694,12.519-14.772,12.519-24.999c0-17.24-13.976-31.216-31.216-31.216   c-1.58,0-3.132,0.12-4.649,0.346c3.063-5.662,4.803-12.144,4.803-19.033c0-22.125-17.936-40.062-40.062-40.062   c-6.93,0-13.449,1.76-19.134,4.857c-3.496-14.16-16.277-24.661-31.517-24.661c-11.954,0-22.392,6.465-28.028,16.085   c-6.942-5.773-15.863-9.247-25.597-9.247c-22.126,0-40.062,17.936-40.062,40.062c0,5.721,1.208,11.158,3.369,16.081   c-19.576,2.633-34.674,19.394-34.674,39.691c0,11.128,4.54,21.194,11.866,28.454c-7.174,5.719-11.777,14.528-11.777,24.416   c0,17.24,13.976,31.216,31.216,31.216c0,17.24,13.976,31.216,31.216,31.216c14.066,0,25.956-9.305,29.859-22.095   c2.803,3.126,6.217,5.688,10.05,7.516v43.391h29.264V209.99c3.738-2.1,7.014-4.927,9.626-8.296   c4.675,11.345,15.837,19.333,28.869,19.333c15.578,0,28.488-11.412,30.833-26.331c4.097,1.976,8.691,3.084,13.545,3.084   c17.24,0,31.216-13.976,31.216-31.216C373.204,156.786,368.706,148.062,361.669,142.338z" fill="#F34E2D"/><g><path d="M198.945,55.287c-6.592-3.283-14.069-3.802-21.052-1.461c-6.983,2.34-12.636,7.26-15.919,13.853    c-3.283,6.593-3.802,14.069-1.462,21.052c1.194,3.562,3.062,6.776,5.479,9.508c-2.335,0.434-4.569,1.37-6.564,2.785    c-3.621,2.567-6.025,6.39-6.77,10.764c-0.095,0.555-0.16,1.111-0.199,1.665c-5.969,2.469-10.839,6.906-13.864,12.702    c-3.407,6.529-4.068,13.994-1.861,21.02c0.877,2.79,2.158,5.342,3.76,7.614c6.725,9.535,19.095,14.107,30.808,10.426    c1.619-0.508,2.519-2.233,2.01-3.852c-0.509-1.619-2.233-2.519-3.852-2.01c-5.46,1.715-11.262,1.202-16.336-1.446    c-5.074-2.648-8.813-7.113-10.528-12.573c-1.715-5.46-1.202-11.261,1.446-16.335c2.083-3.992,5.295-7.152,9.227-9.156    c0.509,1.517,1.241,2.968,2.188,4.312c0.008,0.011,0.016,0.022,0.024,0.033c2.567,3.621,6.389,6.025,10.764,6.77    c1.673,0.285,3.26-0.84,3.545-2.513c0.285-1.673-0.84-3.26-2.513-3.545c-2.757-0.47-5.166-1.985-6.783-4.266    c-0.005-0.007-0.01-0.014-0.015-0.021c-0.941-1.334-1.543-2.837-1.789-4.405c0.114-0.51,0.103-1.055-0.065-1.59    c-0.017-0.055-0.04-0.107-0.06-0.161c0.007-0.544,0.055-1.09,0.148-1.637c0.47-2.757,1.985-5.166,4.266-6.783    c2.282-1.617,5.056-2.249,7.813-1.78c0.756,0.129,1.493-0.032,2.102-0.4c0.481,0.276,0.968,0.544,1.469,0.793    c0.352,0.176,0.722,0.277,1.092,0.311c1.224,0.111,2.447-0.525,3.028-1.691c0.756-1.519,0.138-3.364-1.381-4.12    c-5.123-2.551-8.946-6.945-10.765-12.371c-1.819-5.427-1.415-11.237,1.136-16.36c2.551-5.123,6.945-8.946,12.371-10.765    c5.427-1.819,11.237-1.415,16.36,1.136c1.519,0.757,3.364,0.138,4.12-1.381C201.083,57.888,200.464,56.043,198.945,55.287z" fill="#BD3A21"/><path d="M338.725,160.015c-1.527,0.739-2.166,2.577-1.427,4.104c2.494,5.152,2.832,10.966,0.953,16.372    c-1.879,5.406-5.751,9.756-10.903,12.25c-5.151,2.494-10.965,2.832-16.371,0.953c-4.669-1.623-8.547-4.735-11.125-8.87    c3.084-2.943,4.899-6.887,5.118-11.162c0.226-4.432-1.287-8.687-4.262-11.981c-1.138-1.259-3.08-1.358-4.339-0.221    c-1.26,1.137-1.359,3.08-0.221,4.34c1.874,2.076,2.828,4.757,2.685,7.55c-0.143,2.793-1.364,5.363-3.44,7.237    c-2.076,1.874-4.756,2.827-7.55,2.685c-2.793-0.143-5.363-1.364-7.238-3.44c-1.137-1.259-3.08-1.358-4.339-0.221    c-1.26,1.137-1.359,3.08-0.221,4.34c3.276,3.628,7.799,5.473,12.34,5.473c2.146,0,4.295-0.416,6.318-1.247    c3.318,5.276,8.284,9.247,14.257,11.323c2.965,1.031,6.026,1.543,9.075,1.543c4.104,0,8.189-0.928,11.991-2.769    c6.629-3.209,11.612-8.807,14.03-15.763c2.418-6.956,1.983-14.438-1.226-21.067C342.09,159.915,340.253,159.277,338.725,160.015z" fill="#BD3A21"/><path d="M226.381,20.648c-4.408,0.512-8.353,2.711-11.108,6.19c-2.755,3.479-3.99,7.824-3.478,12.232    c0.158,1.361,1.183,2.41,2.459,2.661c0.304,0.06,0.623,0.074,0.948,0.036c1.686-0.196,2.893-1.721,2.697-3.407    c-0.666-5.734,3.457-10.942,9.191-11.609c5.735-0.666,10.943,3.457,11.609,9.191c0.196,1.686,1.721,2.894,3.407,2.697    c1.686-0.196,2.893-1.721,2.697-3.407C243.746,26.134,235.482,19.591,226.381,20.648z" fill="#BD3A21"/><path d="M286.954,36.286c5.332,2.08,9.535,6.111,11.835,11.352c2.036,4.639,2.361,9.733,0.968,14.54    c-7.163,0.185-13.672,5.028-15.626,12.292c-0.44,1.639,0.53,3.324,2.169,3.765c1.64,0.441,3.325-0.531,3.765-2.169    c1.499-5.575,7.254-8.891,12.83-7.392c2.701,0.726,4.957,2.461,6.353,4.884c1.396,2.423,1.765,5.245,1.039,7.946    c-0.44,1.639,0.53,3.324,2.169,3.765c0.267,0.072,0.536,0.106,0.8,0.106c1.356,0,2.596-0.904,2.965-2.275    c2.255-8.383-2.354-17.018-10.369-19.926c1.564-5.977,1.084-12.263-1.436-18.006c-2.96-6.744-8.368-11.931-15.23-14.607    c-6.862-2.676-14.353-2.52-21.098,0.44c-6.744,2.96-11.931,8.368-14.607,15.23c-0.617,1.581,0.165,3.362,1.746,3.979    c1.58,0.616,3.362-0.166,3.979-1.746c2.079-5.332,6.111-9.535,11.351-11.835C275.799,34.328,281.622,34.206,286.954,36.286z" fill="#BD3A21"/><path d="M231.688,194.538c-1.484-0.823-3.354-0.288-4.177,1.196c-1.357,2.445-3.585,4.216-6.273,4.986    c-2.689,0.77-5.516,0.447-7.961-0.91c-5.048-2.8-6.877-9.187-4.076-14.235c0.824-1.484,0.287-3.355-1.196-4.177    c-1.484-0.823-3.354-0.288-4.177,1.196c-3.12,5.623-2.621,12.291,0.725,17.304c1.421,2.129,3.355,3.96,5.743,5.285    c3.881,2.153,8.368,2.666,12.634,1.444c4.267-1.222,7.802-4.032,9.955-7.913C233.708,197.232,233.171,195.36,231.688,194.538z" fill="#BD3A21"/><path d="M367.223,139.368c-0.487-4.411-2.663-8.369-6.127-11.144c-3.464-2.775-7.801-4.035-12.212-3.547    c-1.687,0.186-2.903,1.706-2.717,3.391c0.186,1.687,1.705,2.903,3.391,2.717c2.78-0.307,5.513,0.487,7.695,2.236    c2.183,1.748,3.554,4.242,3.861,7.022c0.634,5.738-3.519,10.923-9.257,11.556c-1.687,0.186-2.903,1.706-2.717,3.391    c0.186,1.687,1.705,2.903,3.391,2.717c6.392-0.706,11.544-4.968,13.699-10.596C367.147,144.72,367.523,142.083,367.223,139.368z" fill="#BD3A21"/></g><g id="XMLID_163_"><path d="M287.201,94.585c-3.819-5.001-9.225-8.482-15.222-9.801    c-10.711-2.357-21.212,2.226-27.196,11.531c-2.775-4.265-6.468-7.566-10.835-9.653c-5.079-2.428-10.913-3.078-16.427-1.829    c-5.965,1.351-11.341,4.87-15.135,9.91c-4.191,5.567-6.436,12.884-6.494,21.161c-0.116,16.43,12.782,24.163,23.145,30.376    c1.849,1.109,3.596,2.156,5.226,3.218c4.633,3.019,9.204,6.924,12.872,10.995c3.575,3.968,5.315,6.981,5.719,8.355    c0.264,0.897,1.087,1.511,2.019,1.511c0.012,0,0.024,0,0.036,0c0.947-0.016,1.767-0.663,2.002-1.581    c0.807-3.139,8.611-12.524,18.536-19.517c1.948-1.373,4.091-2.699,6.359-4.102c5.154-3.189,10.484-6.486,14.683-11.008    c4.939-5.318,7.315-11.35,7.266-18.44C293.699,107.431,291.432,100.125,287.201,94.585z" fill="#FEFCFB" id="XMLID_164_"/></g></g></svg>